<?xml version="1.0" standalone="no"?>
<!DOCTYPE svg PUBLIC "-//W3C//DTD SVG 20010904//EN"
 "http://www.w3.org/TR/2001/REC-SVG-20010904/DTD/svg10.dtd">
<svg version="1.0" xmlns="http://www.w3.org/2000/svg"
 width="630.000000pt" height="630.000000pt" viewBox="0 0 630.000000 630.000000"
 preserveAspectRatio="xMidYMid meet">
<metadata>
Created by potrace 1.14, written by Peter Selinger 2001-2017
</metadata>
<g transform="translate(0.000000,630.000000) scale(0.100000,-0.100000)"
fill="#000000" stroke="none">
<path d="M3145 5879 c-22 -5 -58 -15 -80 -21 -38 -10 -110 -22 -205 -34 -63
-8 -191 -34 -203 -41 -5 -3 -28 -8 -50 -11 -23 -2 -59 -11 -80 -18 -22 -8 -53
-14 -69 -14 -16 0 -41 -6 -56 -13 -15 -8 -49 -15 -77 -16 -27 -2 -53 -5 -57
-7 -4 -2 -40 -9 -80 -15 -40 -5 -102 -14 -138 -20 -36 -6 -92 -15 -125 -20
-33 -6 -107 -12 -165 -14 -58 -3 -222 -14 -365 -25 -143 -11 -303 -20 -355
-19 -52 0 -118 0 -146 0 l-51 -1 3 -212 c1 -117 5 -440 9 -718 9 -739 11 -801
21 -808 10 -8 13 -17 23 -82 4 -25 3 -63 -1 -85 -11 -61 -9 -154 3 -177 7 -12
15 -83 19 -157 4 -75 13 -149 19 -164 6 -16 11 -43 11 -61 0 -17 4 -36 10 -42
5 -5 13 -41 19 -79 14 -107 21 -137 36 -170 8 -17 17 -46 20 -65 3 -18 9 -38
13 -44 8 -13 8 -14 27 -97 8 -37 19 -79 25 -94 5 -14 10 -41 10 -60 0 -19 4
-36 9 -39 5 -3 12 -26 15 -51 4 -25 14 -57 22 -73 7 -15 14 -33 14 -40 0 -8 8
-26 19 -40 10 -15 26 -49 35 -75 9 -27 25 -67 36 -90 11 -22 20 -44 20 -49 0
-4 16 -30 35 -57 19 -26 35 -51 35 -54 0 -3 10 -17 23 -31 13 -14 36 -50 51
-81 15 -31 35 -65 44 -77 9 -11 34 -41 55 -67 131 -157 149 -177 198 -216 13
-11 36 -36 51 -55 14 -20 46 -48 70 -63 24 -16 59 -51 77 -78 19 -27 37 -49
41 -49 3 0 16 -9 28 -21 39 -36 174 -129 187 -129 7 0 35 -23 62 -51 44 -46
73 -66 97 -67 5 0 12 -5 15 -10 3 -6 36 -24 71 -41 36 -16 83 -47 105 -68 22
-21 42 -38 45 -38 3 0 33 -15 68 -33 34 -18 62 -29 62 -25 0 5 4 3 8 -4 4 -6
36 -27 72 -46 36 -19 86 -46 113 -60 26 -15 47 -23 47 -19 0 4 4 2 8 -4 12
-19 203 -114 229 -114 13 0 31 6 39 14 8 8 38 23 66 34 71 27 373 178 423 212
22 15 49 30 60 34 11 3 33 17 49 31 16 14 35 25 42 25 7 0 19 6 26 12 19 19
148 103 183 121 17 8 37 26 44 40 7 14 31 33 52 42 21 10 55 33 75 52 21 19
51 42 68 51 17 9 48 33 69 52 21 19 52 46 69 60 58 48 186 178 203 208 10 17
28 35 41 41 12 5 37 32 54 59 18 26 42 52 54 58 11 5 35 32 53 59 18 28 42 61
54 75 12 14 28 39 35 55 7 17 24 45 38 64 14 19 26 39 26 44 0 5 8 21 19 35
47 66 171 310 171 336 0 6 4 16 9 21 9 10 57 137 67 180 13 52 27 102 35 120
24 57 39 120 45 189 4 42 11 79 15 82 5 3 9 22 9 43 0 20 4 41 10 47 17 17 53
273 70 499 5 72 14 190 19 263 6 73 13 137 16 142 10 16 14 195 20 941 l7 746
-159 12 c-87 7 -171 15 -188 17 -61 9 -182 23 -235 28 -30 2 -64 7 -75 10 -11
4 -69 11 -130 16 -60 6 -137 14 -170 19 -119 19 -201 31 -265 41 -36 6 -94 15
-130 19 -36 5 -76 13 -90 18 -14 5 -59 15 -100 22 -41 7 -95 16 -120 22 -25 5
-58 12 -75 15 -16 3 -46 9 -65 14 -19 5 -71 12 -115 15 -130 9 -161 14 -195
32 -18 9 -65 19 -104 24 -39 4 -80 10 -91 13 -11 2 -38 0 -60 -5z"/>
</g>
</svg>
